<?xml version="1.0" encoding="utf-8"?>
<!-- Generator: Adobe Illustrator 16.0.0, SVG Export Plug-In . SVG Version: 6.00 Build 0)  -->
<!DOCTYPE svg PUBLIC "-//W3C//DTD SVG 1.1//EN" "http://www.w3.org/Graphics/SVG/1.1/DTD/svg11.dtd">
<svg version="1.1" id="Layer_1" xmlns="http://www.w3.org/2000/svg" xmlns:xlink="http://www.w3.org/1999/xlink" x="0px" y="0px"
	 width="315.251px" height="79.13px" viewBox="147.829 356.717 315.251 79.13"
	 enable-background="new 147.829 356.717 315.251 79.13" xml:space="preserve">
<g>
	<path fill="#010101" d="M156.047,433.978h-6.341c-0.427,0-0.752-0.363-0.702-0.783l6.532-69.963c0.3-3.355,3.202-6.009,6.583-6.009
		h6.2c3.247,0,6.162,2.411,6.774,5.601l6.947,43.044c0.076,0.421,0.434,0.919,0.861,0.925c0.185,0,0.357,0,0.529,0
		c0.434-0.006,0.797-0.504,0.867-0.925l6.928-42.917c0.631-3.317,3.54-5.728,6.793-5.728h6.194c3.381,0,6.283,2.654,6.596,6.009
		l6.544,69.963c0.039,0.42-0.281,0.784-0.727,0.784h-6.341c-0.434,0-0.823-0.364-0.867-0.784l-6.283-67.297
		c-0.038-0.434-0.428-0.791-0.855-0.791h-2.647c-0.421,0-0.842,0.351-0.906,0.791l-8.076,44.026c-0.829,4.3-5.384,4.3-7.47,4.3
		c-2.022-0.007-6.666,0.014-7.482-4.185l-8.088-44.142c-0.077-0.44-0.485-0.791-0.919-0.791h-2.628c-0.44,0-0.823,0.357-0.868,0.791
		l-6.29,67.297C156.864,433.613,156.487,433.978,156.047,433.978L156.047,433.978z"/>
	<path fill="#010101" d="M279.13,433.98h-8l-3.68-21.602c-0.67,0.83-1.29,1.352-1.84,1.352h-18.86l1.36-7.882h16.51
		c0.54,0,1.44-1.028,1.46-1.54c0-0.01,0-0.01,0-0.02l-6.54-38.39c-0.07-0.44-0.48-0.79-0.92-0.79h-7.52c-0.43,0-0.84,0.35-0.92,0.79
		l-11.6,68.03l-8.03,0.052l12.15-71.07c0.55-3.23,3.45-5.69,6.73-5.69h10.87c3.28,0,6.17,2.46,6.73,5.69l7.05,41.41l0.02,0.12
		L279.13,433.98z"/>
	<path fill="#010101" d="M274.1,404.44l-0.02-0.12h0.01C274.1,404.36,274.1,404.4,274.1,404.44z"/>
	<path fill="#010101" d="M463.08,433.98h-8l-3.67-21.602c-0.68,0.83-1.3,1.352-1.852,1.352H430.7l1.35-7.882h16.53
		c0.53,0,1.45-1.05,1.45-1.56l-6.53-38.39c-0.08-0.44-0.49-0.79-0.92-0.79h-7.53c-0.43,0-0.84,0.35-0.91,0.79l-11.608,68.03
		l-8.03,0.052l12.16-71.07c0.54-3.23,3.438-5.69,6.729-5.69h10.852c3.29,0,6.2,2.46,6.74,5.69l7.05,41.41l0.04,0.22v0.01
		L463.08,433.98z"/>
	<path fill="#010101" d="M458.07,404.54l-0.04-0.22h0.02C458.06,404.39,458.07,404.47,458.07,404.54z"/>
	<path fill="#010101" d="M321.15,356.717c2.258,0,10.236,0.147,17.178,1.48l-1.282,7.546c-4.312-0.688-10.251-1.084-15.896-1.084
		c-20.082,0-20.082,2.704-20.082,35.732c0,22.364,3.202,27.507,17.108,27.507c9.308,0,12.732-1.213,13.943-1.928
		c0.664-0.396,0.702-0.472,0.702-1.479v-20.731c0-0.427-0.357-0.784-0.791-0.784h-11.477v-7.936h20.189v29.451
		c0,9.981-10.832,11.354-22.568,11.354c-23.168,0-25.056-16.062-25.056-35.454C293.122,367.721,293.122,356.717,321.15,356.717
		L321.15,356.717z"/>
	<path fill="#010101" d="M378.036,435.847c-8.088,0-14.875-1.595-19.155-3.188l1.295-7.565c3.426,1.562,11.017,2.87,17.86,2.87
		c10.282,0,14.327-3.916,14.946-13.044c0.6-8.912-1.099-11.546-14.199-15.864c-19.398-6.379-21.224-10.041-21.224-24.266
		c0-7.948,4.541-18.014,21.765-18.014c7.489,0,13.032,0.695,19.69,2.45l-1.37,7.731c-5.951-1.575-11.553-2.283-18.32-2.283
		c-12.202,0-13.777,4.86-13.88,10.116c-0.204,10.921,0,11.578,15.807,16.776c14.078,4.631,20.942,9.02,19.608,23.525
		C399.405,430.922,390.87,435.847,378.036,435.847L378.036,435.847z"/>
</g>
</svg>
